# xmcd
#
# Track frame offsets: 
#        150
#        14936
#        28138
#        44991
#        64443
#        78180
#        93005
#        109883
#        128402
#        146712
#        166999
#        183583
#
# Disc length: 2635 seconds
#
# Revision: 2
# Processed by: cddbd v1.5.2PL0 Copyright (c) Steve Scherf et al.
# Submitted via: ExactAudioCopy v1.0b4
#
DISCID=ac0a490c
DTITLE=Eric Brace and Peter Cooper - You Don't Have To Like Them Both
DYEAR=2009
DGENRE=Country
TTITLE0=I Know A Bird
TTITLE1=Omar's Blues #2
TTITLE2=Down To The Well
TTITLE3=Drinking From A Swimming Pool
TTITLE4=The Man Who Loves To Hate
TTITLE5=The First In Line
TTITLE6=Denali, Not McKinley
TTITLE7=I Know Better Know
TTITLE8=Lucky Bones
TTITLE9=Her Bright Smile Haunts Me Still
TTITLE10=Just The Other Side Of Nowhere
TTITLE11=Yesterday's And Used To Be's
EXTD=
EXTT0=
EXTT1=
EXTT2=
EXTT3=
EXTT4=
EXTT5=
EXTT6=
EXTT7=
EXTT8=
EXTT9=
EXTT10=
EXTT11=
PLAYORDER=
